<svg width="87" height="87" viewBox="0 0 87 87" fill="none" xmlns="http://www.w3.org/2000/svg">
<path d="M43.5 0L81.1721 21.75V65.25L43.5 87L5.8279 65.25V21.75L43.5 0Z" fill="url(#paint0_linear_75_65)"/>
<path d="M16.6236 28.3111L43.5 13.0505L70.3764 28.3111V58.6889L43.5 73.9495L16.6236 58.6889V28.3111Z" fill="url(#paint1_linear_75_65)" stroke="url(#paint2_linear_75_65)" stroke-width="10"/>
<g filter="url(#filter0_dd_75_65)">
<path d="M38.7731 50L32.9931 43.32V50H28.9331V36.24H32.7931L38.5731 43.02V36.24H42.6331V50H38.7731ZM51.3733 36C53.1333 36 54.5799 36.36 55.7133 37.08C56.8466 37.7867 57.4266 38.84 57.4533 40.24V40.48H53.3133V40.4C53.3133 40 53.1666 39.6667 52.8733 39.4C52.5799 39.1333 52.1333 39 51.5333 39C50.9466 39 50.4933 39.0867 50.1733 39.26C49.8666 39.4333 49.7133 39.6467 49.7133 39.9C49.7133 40.26 49.9266 40.5267 50.3533 40.7C50.7799 40.8733 51.4666 41.0533 52.4133 41.24C53.5199 41.4667 54.4266 41.7067 55.1333 41.96C55.8533 42.2 56.4799 42.6 57.0133 43.16C57.5466 43.72 57.8199 44.48 57.8333 45.44C57.8333 47.0667 57.2799 48.2733 56.1733 49.06C55.0799 49.8467 53.6133 50.24 51.7733 50.24C49.6266 50.24 47.9533 49.88 46.7533 49.16C45.5666 48.44 44.9733 47.1667 44.9733 45.34H49.1533C49.1533 46.0333 49.3333 46.5 49.6933 46.74C50.0533 46.9667 50.6133 47.08 51.3733 47.08C51.9333 47.08 52.3933 47.02 52.7533 46.9C53.1266 46.78 53.3133 46.5333 53.3133 46.16C53.3133 45.8267 53.1066 45.58 52.6933 45.42C52.2933 45.2467 51.6333 45.0667 50.7133 44.88C49.5933 44.64 48.6666 44.3933 47.9333 44.14C47.1999 43.8733 46.5599 43.44 46.0133 42.84C45.4666 42.24 45.1933 41.4267 45.1933 40.4C45.1933 38.8933 45.7733 37.7867 46.9333 37.08C48.1066 36.36 49.5866 36 51.3733 36Z" fill="url(#paint3_linear_75_65)"/>
</g>
<defs>
<filter id="filter0_dd_75_65" x="24.9331" y="36" width="36.9002" height="22.24" filterUnits="userSpaceOnUse" color-interpolation-filters="sRGB">
<feFlood flood-opacity="0" result="BackgroundImageFix"/>
<feColorMatrix in="SourceAlpha" type="matrix" values="0 0 0 0 0 0 0 0 0 0 0 0 0 0 0 0 0 0 127 0" result="hardAlpha"/>
<feOffset dy="4"/>
<feGaussianBlur stdDeviation="2"/>
<feComposite in2="hardAlpha" operator="out"/>
<feColorMatrix type="matrix" values="0 0 0 0 0 0 0 0 0 0 0 0 0 0 0 0 0 0 0.25 0"/>
<feBlend mode="normal" in2="BackgroundImageFix" result="effect1_dropShadow_75_65"/>
<feColorMatrix in="SourceAlpha" type="matrix" values="0 0 0 0 0 0 0 0 0 0 0 0 0 0 0 0 0 0 127 0" result="hardAlpha"/>
<feOffset dy="4"/>
<feGaussianBlur stdDeviation="2"/>
<feComposite in2="hardAlpha" operator="out"/>
<feColorMatrix type="matrix" values="0 0 0 0 0 0 0 0 0 0 0 0 0 0 0 0 0 0 0.25 0"/>
<feBlend mode="normal" in2="effect1_dropShadow_75_65" result="effect2_dropShadow_75_65"/>
<feBlend mode="normal" in="SourceGraphic" in2="effect2_dropShadow_75_65" result="shape"/>
</filter>
<linearGradient id="paint0_linear_75_65" x1="43.5" y1="0" x2="43.5" y2="87" gradientUnits="userSpaceOnUse">
<stop stop-color="#003554"/>
<stop offset="0.0001" stop-color="#003554"/>
<stop offset="1" stop-color="#006494"/>
</linearGradient>
<linearGradient id="paint1_linear_75_65" x1="43.5" y1="7.30069" x2="43.5" y2="79.6993" gradientUnits="userSpaceOnUse">
<stop stop-color="#00A8E8"/>
<stop offset="0.135" stop-color="#0391D7"/>
<stop offset="0.495849" stop-color="#0678C5"/>
<stop offset="0.622922" stop-color="#086CBC"/>
<stop offset="1" stop-color="#0D47A1"/>
</linearGradient>
<linearGradient id="paint2_linear_75_65" x1="43.5" y1="7.30069" x2="43.5" y2="79.6993" gradientUnits="userSpaceOnUse">
<stop stop-color="#054D76"/>
<stop offset="1" stop-color="#057CB9"/>
</linearGradient>
<linearGradient id="paint3_linear_75_65" x1="43" y1="32" x2="43" y2="54" gradientUnits="userSpaceOnUse">
<stop stop-color="white"/>
<stop offset="1" stop-color="white"/>
</linearGradient>
</defs>
</svg>
